<svg width="150" height="56" viewBox="0 0 150 56" fill="none" xmlns="http://www.w3.org/2000/svg">
<rect x="1.5" y="1.5" width="147" height="53" rx="4.5" fill="#D9D9D9"/>
<rect x="1.5" y="1.5" width="147" height="53" rx="4.5" stroke="#D9D9D9" stroke-width="3"/>
<path d="M49.4433 26.288C49.4433 26.8853 49.2993 27.4453 49.0113 27.968C48.734 28.4907 48.2913 28.912 47.6833 29.232C47.086 29.552 46.3286 29.712 45.4113 29.712H43.5393V34H41.2993V22.832H45.4113C46.2753 22.832 47.0113 22.9813 47.6193 23.28C48.2273 23.5787 48.6806 23.9893 48.9793 24.512C49.2886 25.0347 49.4433 25.6267 49.4433 26.288ZM45.3153 27.904C45.934 27.904 46.3926 27.7653 46.6913 27.488C46.99 27.2 47.1393 26.8 47.1393 26.288C47.1393 25.2 46.5313 24.656 45.3153 24.656H43.5393V27.904H45.3153ZM53.2737 26.512C53.5617 26.0427 53.935 25.6747 54.3937 25.408C54.863 25.1413 55.3964 25.008 55.9937 25.008V27.36H55.4017C54.6977 27.36 54.1644 27.5253 53.8017 27.856C53.4497 28.1867 53.2737 28.7627 53.2737 29.584V34H51.0337V25.136H53.2737V26.512ZM65.7424 29.376C65.7424 29.696 65.7211 29.984 65.6784 30.24H59.1984C59.2518 30.88 59.4758 31.3813 59.8704 31.744C60.2651 32.1067 60.7504 32.288 61.3264 32.288C62.1584 32.288 62.7504 31.9307 63.1024 31.216H65.5184C65.2624 32.0693 64.7718 32.7733 64.0464 33.328C63.3211 33.872 62.4304 34.144 61.3744 34.144C60.5211 34.144 59.7531 33.9573 59.0704 33.584C58.3984 33.2 57.8704 32.6613 57.4864 31.968C57.1131 31.2747 56.9264 30.4747 56.9264 29.568C56.9264 28.6507 57.1131 27.8453 57.4864 27.152C57.8598 26.4587 58.3824 25.9253 59.0544 25.552C59.7264 25.1787 60.4998 24.992 61.3744 24.992C62.2171 24.992 62.9691 25.1733 63.6304 25.536C64.3024 25.8987 64.8198 26.416 65.1824 27.088C65.5558 27.7493 65.7424 28.512 65.7424 29.376ZM63.4224 28.736C63.4118 28.16 63.2038 27.7013 62.7984 27.36C62.3931 27.008 61.8971 26.832 61.3104 26.832C60.7558 26.832 60.2864 27.0027 59.9024 27.344C59.5291 27.6747 59.2998 28.1387 59.2144 28.736H63.4224ZM71.0734 31.936L73.3134 25.136H75.6974L72.4174 34H69.6974L66.4334 25.136H68.8334L71.0734 31.936ZM78.0916 24.08C77.6969 24.08 77.3662 23.9573 77.0996 23.712C76.8436 23.456 76.7156 23.1413 76.7156 22.768C76.7156 22.3947 76.8436 22.0853 77.0996 21.84C77.3662 21.584 77.6969 21.456 78.0916 21.456C78.4862 21.456 78.8116 21.584 79.0676 21.84C79.3342 22.0853 79.4676 22.3947 79.4676 22.768C79.4676 23.1413 79.3342 23.456 79.0676 23.712C78.8116 23.9573 78.4862 24.08 78.0916 24.08ZM79.1956 25.136V34H76.9556V25.136H79.1956ZM85.3447 34.144C84.4914 34.144 83.7234 33.9573 83.0407 33.584C82.358 33.2 81.8194 32.6613 81.4247 31.968C81.0407 31.2747 80.8487 30.4747 80.8487 29.568C80.8487 28.6613 81.046 27.8613 81.4407 27.168C81.846 26.4747 82.3954 25.9413 83.0887 25.568C83.782 25.184 84.5554 24.992 85.4087 24.992C86.262 24.992 87.0354 25.184 87.7287 25.568C88.422 25.9413 88.966 26.4747 89.3607 27.168C89.766 27.8613 89.9687 28.6613 89.9687 29.568C89.9687 30.4747 89.7607 31.2747 89.3447 31.968C88.9394 32.6613 88.3847 33.2 87.6807 33.584C86.9874 33.9573 86.2087 34.144 85.3447 34.144ZM85.3447 32.192C85.75 32.192 86.1287 32.096 86.4807 31.904C86.8434 31.7013 87.1314 31.4027 87.3447 31.008C87.558 30.6133 87.6647 30.1333 87.6647 29.568C87.6647 28.7253 87.4407 28.08 86.9927 27.632C86.5554 27.1733 86.0167 26.944 85.3767 26.944C84.7367 26.944 84.198 27.1733 83.7607 27.632C83.334 28.08 83.1207 28.7253 83.1207 29.568C83.1207 30.4107 83.3287 31.0613 83.7447 31.52C84.1714 31.968 84.7047 32.192 85.3447 32.192ZM99.9798 25.136V34H97.7238V32.88C97.4358 33.264 97.0571 33.568 96.5878 33.792C96.1291 34.0053 95.6278 34.112 95.0838 34.112C94.3905 34.112 93.7771 33.968 93.2438 33.68C92.7105 33.3813 92.2891 32.9493 91.9798 32.384C91.6811 31.808 91.5318 31.1253 91.5318 30.336V25.136H93.7718V30.016C93.7718 30.72 93.9478 31.264 94.2998 31.648C94.6518 32.0213 95.1318 32.208 95.7398 32.208C96.3585 32.208 96.8438 32.0213 97.1958 31.648C97.5478 31.264 97.7238 30.72 97.7238 30.016V25.136H99.9798ZM105.582 34.144C104.857 34.144 104.206 34.016 103.63 33.76C103.054 33.4933 102.595 33.136 102.254 32.688C101.923 32.24 101.742 31.744 101.71 31.2H103.966C104.009 31.5413 104.174 31.824 104.462 32.048C104.761 32.272 105.129 32.384 105.566 32.384C105.993 32.384 106.323 32.2987 106.558 32.128C106.803 31.9573 106.926 31.7387 106.926 31.472C106.926 31.184 106.777 30.9707 106.478 30.832C106.19 30.6827 105.726 30.5227 105.086 30.352C104.425 30.192 103.881 30.0267 103.454 29.856C103.038 29.6853 102.675 29.424 102.366 29.072C102.067 28.72 101.918 28.2453 101.918 27.648C101.918 27.1573 102.057 26.7093 102.334 26.304C102.622 25.8987 103.027 25.5787 103.55 25.344C104.083 25.1093 104.707 24.992 105.422 24.992C106.478 24.992 107.321 25.2587 107.95 25.792C108.579 26.3147 108.926 27.024 108.99 27.92H106.846C106.814 27.568 106.665 27.2907 106.398 27.088C106.142 26.8747 105.795 26.768 105.358 26.768C104.953 26.768 104.638 26.8427 104.414 26.992C104.201 27.1413 104.094 27.3493 104.094 27.616C104.094 27.9147 104.243 28.144 104.542 28.304C104.841 28.4533 105.305 28.608 105.934 28.768C106.574 28.928 107.102 29.0933 107.518 29.264C107.934 29.4347 108.291 29.7013 108.59 30.064C108.899 30.416 109.059 30.8853 109.07 31.472C109.07 31.984 108.926 32.4427 108.638 32.848C108.361 33.2533 107.955 33.5733 107.422 33.808C106.899 34.032 106.286 34.144 105.582 34.144Z" fill="#636363"/>
</svg>
