<svg width="150" height="56" viewBox="0 0 150 56" fill="none" xmlns="http://www.w3.org/2000/svg">
<rect x="1.5" y="1.5" width="147" height="53" rx="4.5" fill="#107F4C"/>
<rect x="1.5" y="1.5" width="147" height="53" rx="4.5" stroke="#107F4C" stroke-width="3"/>
<path d="M67.4138 34H65.1738L60.1018 26.336V34H57.8618V22.816H60.1018L65.1738 30.496V22.816H67.4138V34ZM77.8674 29.376C77.8674 29.696 77.8461 29.984 77.8034 30.24H71.3234C71.3768 30.88 71.6008 31.3813 71.9954 31.744C72.3901 32.1067 72.8754 32.288 73.4514 32.288C74.2834 32.288 74.8754 31.9307 75.2274 31.216H77.6434C77.3874 32.0693 76.8968 32.7733 76.1714 33.328C75.4461 33.872 74.5554 34.144 73.4994 34.144C72.6461 34.144 71.8781 33.9573 71.1954 33.584C70.5234 33.2 69.9954 32.6613 69.6114 31.968C69.2381 31.2747 69.0514 30.4747 69.0514 29.568C69.0514 28.6507 69.2381 27.8453 69.6114 27.152C69.9848 26.4587 70.5074 25.9253 71.1794 25.552C71.8514 25.1787 72.6248 24.992 73.4994 24.992C74.3421 24.992 75.0941 25.1733 75.7554 25.536C76.4274 25.8987 76.9448 26.416 77.3074 27.088C77.6808 27.7493 77.8674 28.512 77.8674 29.376ZM75.5474 28.736C75.5368 28.16 75.3288 27.7013 74.9234 27.36C74.5181 27.008 74.0221 26.832 73.4354 26.832C72.8808 26.832 72.4114 27.0027 72.0274 27.344C71.6541 27.6747 71.4248 28.1387 71.3394 28.736H75.5474ZM84.3984 34L82.5744 31.248L80.9584 34H78.5584L81.4544 29.552L78.5264 25.136H81.0544L82.8624 27.872L84.4944 25.136H86.8944L83.9824 29.552L86.9264 34H84.3984ZM90.7511 26.976V31.264C90.7511 31.5627 90.8204 31.7813 90.9591 31.92C91.1084 32.048 91.3537 32.112 91.6951 32.112H92.7351V34H91.3271C89.4391 34 88.4951 33.0827 88.4951 31.248V26.976H87.4391V25.136H88.4951V22.944H90.7511V25.136H92.7351V26.976H90.7511Z" fill="white"/>
</svg>
