<svg width="39" height="44" viewBox="0 0 39 44" fill="none" xmlns="http://www.w3.org/2000/svg">
<path d="M26.3789 32.962H26.995V38.0028L11.9891 38.0011V36.1635H23.5506C23.9333 36.1635 24.2456 35.8573 24.2456 35.4782C24.2456 35.1009 23.935 34.793 23.5506 34.793H11.9891V32.9588H26.3773H26.379H26.3807L26.3789 32.962ZM31.7454 17.0989C31.7454 19.8858 30.7603 22.6032 28.9738 24.7504C27.2405 26.835 26.1919 29.0787 25.7766 31.5915H13.2095C12.7959 29.0804 11.7473 26.8366 10.0123 24.7522C8.22408 22.6016 7.24072 19.8825 7.24072 17.0972C7.24072 10.4355 12.7377 5.01392 19.4959 5.01392C26.2524 5.01392 31.7476 10.4337 31.7476 17.0972L31.7454 17.0989ZM28.2324 19.2089C29.1557 18.2038 29.3925 16.747 28.8313 15.5067C29.0939 14.84 29.063 14.0904 28.7335 13.4373C28.4177 12.8129 27.8651 12.351 27.2044 12.1445C26.6381 10.3425 24.982 9.11573 23.0788 9.07514C22.7905 8.41356 22.1881 7.92282 21.4399 7.7807C20.6934 7.64195 19.952 7.87884 19.4388 8.38475C18.5602 8.06326 17.5854 8.03619 16.6862 8.31877C15.7732 8.60303 14.982 9.19355 14.45 9.97022C13.9643 9.91777 13.4718 10.0176 13.0411 10.2646C12.5674 10.532 12.2122 10.9465 12.0217 11.4406C11.4931 11.6234 11.0349 11.9702 10.7226 12.4356C10.3742 12.9533 10.2318 13.5777 10.3159 14.1852C9.55731 15.6641 9.72377 17.4323 10.7655 18.7555C11.7437 20.0009 13.3002 20.605 14.8482 20.3782C15.3596 21.1634 16.1748 21.7201 17.1204 21.9062C18.2994 22.138 19.3909 21.8283 20.7724 21.4392C20.8462 21.4189 20.9217 21.3969 20.9972 21.3749C21.258 22.4865 22.1195 23.3952 23.2831 23.7015C24.1 24.1042 24.5376 24.5864 24.6183 25.1735C24.6646 25.5136 24.958 25.7658 25.3064 25.7658H27.0294C27.4019 25.7658 27.7073 25.4764 27.7228 25.1109C27.7794 23.8182 27.4156 22.561 26.6879 21.5035C27.3795 20.9789 28.2668 20.1431 28.2307 19.209L28.2324 19.2089ZM27.7296 16.6742C27.8034 17.3307 27.558 18.0041 27.0259 18.461C26.8046 18.6505 26.729 18.9568 26.8354 19.2258C26.8835 19.3476 26.7033 19.8654 25.3115 20.7927C25.1467 20.9027 25.0369 21.0769 25.0112 21.2715C24.9854 21.4661 25.0455 21.6624 25.1776 21.8096C25.8281 22.544 26.2228 23.4442 26.3172 24.3985H25.8452C25.5466 23.5965 24.8705 22.9383 23.827 22.4408C23.7824 22.4188 23.7361 22.4036 23.6863 22.3917C22.9587 22.2191 22.4318 21.632 22.3254 20.9298C22.8865 20.6777 23.4958 20.3833 23.9592 19.923C24.2303 19.6557 24.2286 19.2208 23.9575 18.9551C23.6863 18.6878 23.2453 18.6895 22.9758 18.9568C22.6446 19.2834 22.1074 19.5237 21.5892 19.7555C21.5188 19.7877 21.4485 19.8181 21.3781 19.8503C21.0263 19.9433 20.7019 20.0347 20.3896 20.1227C19.142 20.4746 18.2393 20.7301 17.3915 20.5626C16.7033 20.4273 16.1284 19.967 15.8521 19.3308C15.7148 19.0144 15.3613 18.8485 15.0249 18.9416C13.8511 19.2699 12.6086 18.8671 11.8621 17.9162C11.1139 16.9653 11.0281 15.6793 11.6424 14.642C11.7334 14.4864 11.7608 14.3019 11.7162 14.1293C11.6338 13.8112 11.6939 13.4694 11.881 13.1919C12.0646 12.9178 12.3598 12.7317 12.691 12.6809C12.9879 12.6352 13.223 12.4068 13.2694 12.1124C13.3157 11.8315 13.4822 11.5912 13.7327 11.4491C13.7619 11.4322 13.7911 11.4186 13.8202 11.4051C13.8014 11.8518 13.949 12.3053 14.2681 12.664C14.4054 12.818 14.5976 12.8958 14.7899 12.8958C14.9529 12.8958 15.1159 12.84 15.2481 12.7249C15.5364 12.4745 15.5638 12.043 15.3116 11.7587C15.1691 11.5997 15.1691 11.3611 15.3099 11.202C15.3133 11.1969 15.3167 11.1919 15.3219 11.1885C15.3305 11.1766 15.3407 11.1665 15.3493 11.1546C15.3562 11.1462 15.3613 11.1377 15.3682 11.1292C15.3751 11.1208 15.3802 11.1106 15.3871 11.1022C15.3939 11.0903 15.4008 11.0802 15.406 11.0683C15.4094 11.0633 15.4111 11.0582 15.4145 11.0531C15.7543 10.3729 16.3704 9.85176 17.1067 9.62161C17.582 9.47271 18.0866 9.45241 18.5671 9.55562C18.4693 9.78067 18.4075 10.0226 18.3886 10.2713C18.3423 10.8856 18.5602 11.4947 18.9859 11.9465C19.1232 12.092 19.3085 12.1648 19.4938 12.1648C19.6637 12.1648 19.8336 12.1039 19.9658 11.982C20.2472 11.7248 20.2626 11.2916 20.0018 11.0142C19.8388 10.8416 19.7547 10.6081 19.7735 10.3729C19.7907 10.136 19.9091 9.91261 20.0962 9.76373L20.0979 9.76204C20.1082 9.75358 20.1185 9.74343 20.1288 9.73327C20.1357 9.7265 20.1425 9.72143 20.1494 9.71466L20.1511 9.71297C20.2009 9.6639 20.2421 9.60975 20.2729 9.55053C20.448 9.22565 20.8153 9.05477 21.1825 9.12244C21.5515 9.19181 21.8278 9.48623 21.869 9.8551C21.9119 10.229 22.2534 10.4998 22.6344 10.4592C24.2132 10.2883 25.6428 11.317 25.9585 12.8534C26.0186 13.1428 26.2589 13.3627 26.5558 13.3983C26.9608 13.4456 27.3109 13.6893 27.4911 14.0463C27.673 14.4067 27.661 14.8281 27.4567 15.1749C27.455 15.1783 27.4533 15.1834 27.4516 15.1868C27.074 15.5878 26.4803 15.7215 25.9637 15.5184C25.4403 15.312 25.1005 14.7993 25.1176 14.2426C25.1296 13.8653 24.8293 13.5488 24.4449 13.537C24.0588 13.5235 23.7413 13.8213 23.7293 14.2003C23.6933 15.3323 24.3849 16.3729 25.4506 16.7926C25.7767 16.9212 26.1182 16.9821 26.458 16.9821C26.9008 16.9821 27.3384 16.8755 27.7314 16.6741L27.7296 16.6742ZM18.2751 15.9043C17.9868 15.6539 17.5492 15.681 17.2952 15.9652C17.0446 16.2461 16.6825 16.4068 16.305 16.4068C15.924 16.4068 15.5636 16.2461 15.3113 15.9652C15.0573 15.681 14.6197 15.6539 14.3314 15.9043C14.0431 16.1547 14.0156 16.5862 14.2696 16.8705C14.7845 17.4458 15.5258 17.7757 16.305 17.7757C17.0824 17.7757 17.822 17.4458 18.3369 16.8705C18.5909 16.5862 18.5634 16.1548 18.2751 15.9043ZM14.8256 39.4038C14.8256 41.9385 16.9193 44.001 19.4918 44.001C22.0626 44.001 24.1545 41.9384 24.1545 39.4038V39.3716H14.8256V39.4038Z" fill="#107F4C"/>
<path d="M19.2163 0C10.5654 0.00293674 3.54268 5.64491 3.49936 12.6259C1.3848 13.3689 0.00726732 15.0503 0 16.9167C0.00727897 18.814 1.42849 20.5218 3.60128 21.2459C3.8979 22.008 4.77864 22.5557 5.82317 22.5557H8.15245C8.50547 22.5557 8.83669 22.4882 9.13693 22.3751C9.86847 22.0991 10.3835 21.5278 10.4599 20.8479C10.4671 20.7907 10.4817 20.7349 10.4817 20.6761V13.1576C10.4817 12.1165 9.44262 11.278 8.15243 11.278H5.97601C6.8513 5.91235 12.5087 1.89595 19.2165 1.87978C25.9369 1.88125 31.6143 5.90182 32.4896 11.278H30.2805C29.4925 11.278 28.801 11.5937 28.3788 12.0739C28.1113 12.3808 27.9494 12.7523 27.9494 13.1576V20.6761C27.9494 20.7349 27.9639 20.7907 27.9712 20.8479C28.0476 21.5278 28.5626 22.099 29.2941 22.3751C29.5944 22.4882 29.9256 22.5557 30.2786 22.5557H32.0747C30.9046 25.1902 27.913 27.0169 24.452 27.2093C24.4319 26.7115 23.9315 26.3151 23.311 26.3151H17.4496C17.0202 26.3151 16.6508 26.506 16.456 26.7879C16.3632 26.9215 16.305 27.0742 16.305 27.2402V29.1506C16.305 29.6631 16.8164 30.0758 17.4496 30.0758H23.311C23.9461 30.0758 24.4556 29.6631 24.4556 29.1506V29.089C29.7822 28.8452 34.1346 25.5676 34.8045 21.296C34.8118 21.2798 34.8227 21.2637 34.8282 21.2475C37.001 20.5236 38.4222 18.8172 38.4313 16.9184C38.424 15.052 37.0465 13.3706 34.9319 12.6275C34.8901 5.64658 27.8659 0.0046727 19.2168 0.00166529L19.2163 0Z" fill="#070707"/>
</svg>
