<svg width="69" height="79" viewBox="0 0 69 79" fill="none" xmlns="http://www.w3.org/2000/svg">
<path d="M47.3609 59.1799H48.467V68.2305L21.5253 68.2274V64.9281H42.2829C42.97 64.9281 43.5308 64.3782 43.5308 63.6977C43.5308 63.0202 42.9731 62.4673 42.2829 62.4673H21.5253V59.174H47.358H47.3611H47.3641L47.3609 59.1799ZM56.9959 30.6982C56.9959 35.7019 55.2273 40.581 52.0198 44.4362C48.9078 48.1791 47.0252 52.2076 46.2795 56.7191H23.7164C22.9738 52.2106 21.0912 48.1818 17.9761 44.4393C14.7655 40.578 13 35.696 13 30.6951C13 18.7342 22.8693 9 35.0032 9C47.1339 9 57 18.7311 57 30.6951L56.9959 30.6982ZM50.6887 34.4867C52.3464 32.6821 52.7716 30.0663 51.764 27.8394C52.2355 26.6424 52.18 25.2966 51.5884 24.1239C51.0215 23.0028 50.0293 22.1735 48.843 21.8028C47.8262 18.5672 44.8529 16.3647 41.4359 16.2918C40.9182 15.1039 39.8368 14.2228 38.4933 13.9677C37.153 13.7185 35.8219 14.1439 34.9006 15.0522C33.3231 14.475 31.5729 14.4264 29.9584 14.9337C28.3193 15.4441 26.8988 16.5044 25.9437 17.8989C25.0717 17.8047 24.1874 17.984 23.414 18.4275C22.5637 18.9075 21.9258 19.6518 21.5838 20.5389C20.6348 20.867 19.8121 21.4899 19.2514 22.3253C18.6259 23.255 18.3702 24.376 18.5211 25.4667C17.1592 28.122 17.4581 31.2967 19.3284 33.6726C21.0847 35.9087 23.8793 36.9932 26.6586 36.5861C27.5768 37.9958 29.0403 38.9954 30.7381 39.3295C32.8549 39.7457 34.8145 39.1897 37.2949 38.491C37.4274 38.4545 37.5629 38.415 37.6985 38.3755C38.1668 40.3715 39.7136 42.003 41.8026 42.5529C43.2693 43.2759 44.055 44.1418 44.1998 45.1959C44.283 45.8066 44.8099 46.2593 45.4354 46.2593H48.5289C49.1975 46.2593 49.746 45.7398 49.7737 45.0836C49.8754 42.7625 49.2222 40.5052 47.9157 38.6064C49.1574 37.6647 50.7504 36.1639 50.6857 34.4868L50.6887 34.4867ZM49.7859 29.9356C49.9184 31.1144 49.4778 32.3235 48.5226 33.1438C48.1251 33.4841 47.9896 34.0339 48.1806 34.517C48.2669 34.7357 47.9434 35.6654 45.4445 37.3302C45.1487 37.5277 44.9515 37.8406 44.9053 38.19C44.859 38.5394 44.9669 38.8918 45.2041 39.1562C46.3719 40.4747 47.0806 42.0909 47.2501 43.8044H46.4028C45.8666 42.3643 44.6526 41.1826 42.7793 40.2894C42.6991 40.2499 42.616 40.2226 42.5266 40.2013C41.2202 39.8914 40.2742 38.8372 40.0832 37.5764C41.0907 37.1237 42.1846 36.5951 43.0165 35.7688C43.5033 35.2888 43.5003 34.508 43.0134 34.031C42.5266 33.551 41.7347 33.554 41.251 34.034C40.6563 34.6204 39.6919 35.0518 38.7614 35.468C38.6351 35.5258 38.5088 35.5805 38.3824 35.6382C37.7508 35.8053 37.1684 35.9693 36.6077 36.1273C34.3677 36.7592 32.7469 37.2179 31.2248 36.9172C29.9893 36.6741 28.9571 35.8478 28.461 34.7054C28.2145 34.1373 27.5798 33.8396 26.9759 34.0067C24.8683 34.5961 22.6376 33.873 21.2973 32.1656C19.9539 30.4582 19.7998 28.1493 20.9029 26.287C21.0662 26.0075 21.1155 25.6763 21.0354 25.3664C20.8875 24.7953 20.9953 24.1816 21.3312 23.6833C21.6608 23.1912 22.1908 22.857 22.7855 22.7658C23.3186 22.6838 23.7407 22.2737 23.8239 21.745C23.9071 21.2407 24.2059 20.8093 24.6558 20.5542C24.7082 20.5238 24.7606 20.4995 24.8129 20.4752C24.7791 21.2772 25.044 22.0914 25.6171 22.7354C25.8636 23.0119 26.2087 23.1517 26.5538 23.1517C26.8465 23.1517 27.1392 23.0514 27.3765 22.8448C27.8941 22.3952 27.9434 21.6205 27.4905 21.1101C27.2348 20.8245 27.2348 20.3961 27.4874 20.1105C27.4936 20.1014 27.4997 20.0923 27.509 20.0862C27.5244 20.0649 27.5429 20.0467 27.5583 20.0255C27.5706 20.0103 27.5799 19.9951 27.5922 19.9799C27.6045 19.9647 27.6137 19.9465 27.6261 19.9313C27.6384 19.91 27.6507 19.8918 27.66 19.8705C27.6661 19.8614 27.6692 19.8523 27.6754 19.8432C28.2855 18.6219 29.3916 17.6862 30.7135 17.273C31.5669 17.0056 32.4728 16.9692 33.3355 17.1545C33.1599 17.5585 33.049 17.993 33.0151 18.4395C32.9319 19.5424 33.3232 20.636 34.0874 21.4472C34.3339 21.7085 34.6666 21.8391 34.9994 21.8391C35.3044 21.8391 35.6094 21.7298 35.8467 21.511C36.352 21.0492 36.3797 20.2715 35.9114 19.7732C35.6187 19.4634 35.4677 19.0441 35.5016 18.6218C35.5324 18.1965 35.745 17.7954 36.0808 17.5281L36.0839 17.5251C36.1024 17.5099 36.1209 17.4917 36.1394 17.4734C36.1517 17.4613 36.164 17.4522 36.1764 17.44L36.1794 17.437C36.2688 17.3489 36.3427 17.2517 36.3982 17.1453C36.7125 16.562 37.3719 16.2552 38.0312 16.3767C38.6937 16.5013 39.1898 17.0299 39.2637 17.6922C39.3407 18.3636 39.9539 18.8497 40.6379 18.7767C43.4727 18.4699 46.0393 20.3171 46.6062 23.0756C46.714 23.5951 47.1454 23.99 47.6785 24.0538C48.4056 24.1389 49.0342 24.5763 49.3577 25.2174C49.6843 25.8645 49.6627 26.621 49.2961 27.2438C49.293 27.2499 49.2899 27.259 49.2868 27.2651C48.609 27.9851 47.5429 28.2251 46.6155 27.8605C45.6757 27.4899 45.0657 26.5693 45.0964 25.5698C45.118 24.8923 44.5788 24.3242 43.8886 24.303C43.1954 24.2787 42.6253 24.8134 42.6038 25.4938C42.5391 27.5263 43.7808 29.3947 45.6942 30.1482C46.2797 30.379 46.8928 30.4884 47.5029 30.4884C48.2979 30.4884 49.0836 30.297 49.7891 29.9355L49.7859 29.9356ZM32.8113 28.5534C32.2936 28.1037 31.508 28.1523 31.0519 28.6627C30.602 29.167 29.9519 29.4556 29.2741 29.4556C28.59 29.4556 27.943 29.167 27.4901 28.6627C27.034 28.1523 26.2484 28.1037 25.7307 28.5534C25.213 29.003 25.1637 29.7777 25.6198 30.2881C26.5441 31.321 27.8752 31.9134 29.274 31.9134C30.6698 31.9134 31.9978 31.321 32.9222 30.2881C33.3782 29.7777 33.3289 29.003 32.8113 28.5534ZM26.6181 70.7458C26.6181 75.2969 30.3771 79 34.9957 79C39.6114 79 43.3671 75.2966 43.3671 70.7458V70.6881H26.6181V70.7458Z" fill="#107F4C"/>
<path d="M34.5012 0C18.9693 0.00527282 6.36057 10.1353 6.28278 22.6693C2.48628 24.0035 0.0130478 27.0223 0 30.3734C0.0130687 33.7798 2.56474 36.8461 6.46579 38.1462C6.99834 39.5146 8.57962 40.4981 10.455 40.4981H14.637C15.2708 40.4981 15.8655 40.3768 16.4046 40.1738C17.718 39.6781 18.6426 38.6525 18.7798 37.4318C18.7928 37.3289 18.819 37.2287 18.819 37.1233V23.624C18.819 21.7547 16.9534 20.2492 14.637 20.2492H10.7294C12.3009 10.6154 22.4582 3.40411 34.5015 3.37509C46.5675 3.37772 56.7607 10.5965 58.3323 20.2492H54.3659C52.9512 20.2492 51.7096 20.816 50.9517 21.6782C50.4714 22.2293 50.1806 22.8963 50.1806 23.624V37.1233C50.1806 37.2287 50.2068 37.3289 50.2198 37.4318C50.3571 38.6525 51.2817 39.6781 52.595 40.1738C53.1341 40.3768 53.7288 40.4981 54.3626 40.4981H57.5874C55.4866 45.2281 50.1153 48.5079 43.9013 48.8535C43.8654 47.9597 42.9669 47.2478 41.8528 47.2478H31.3292C30.5582 47.2478 29.895 47.5906 29.5454 48.0968C29.3788 48.3367 29.2742 48.6109 29.2742 48.9088V52.339C29.2742 53.2592 30.1923 54 31.3292 54H41.8528C42.9931 54 43.9078 53.2591 43.9078 52.339V52.2282C53.4712 51.7906 61.2857 45.9057 62.4885 38.2362C62.5015 38.2072 62.5211 38.1782 62.5309 38.1492C66.432 36.8494 68.9836 33.7857 69 30.3764C68.9869 27.0253 66.5136 24.0064 62.7172 22.6723C62.6421 10.1382 50.0307 0.00838968 34.5021 0.00298997L34.5012 0Z" fill="#070707"/>
</svg>
