<svg width="64" height="64" viewBox="0 0 64 64" fill="none" xmlns="http://www.w3.org/2000/svg">
<path d="M33.1632 34.1246L7.03507 36.734L0.158187 59.4241C-0.0426448 60.0803 -0.0524601 60.783 0.12996 61.4449C0.31238 62.1069 0.679017 62.6991 1.18445 63.1482C1.68987 63.5972 2.31188 63.8834 2.9734 63.9712C3.63492 64.0591 4.30689 63.9447 4.90603 63.6423L62.1701 35.0322C62.7188 34.756 63.1813 34.3263 63.5049 33.792C63.8284 33.2577 64 32.6403 64 32.0103C64 31.3803 63.8284 30.763 63.5049 30.2287C63.1813 29.6944 62.7188 29.2646 62.1701 28.9884L4.94601 0.357659C4.34687 0.0552793 3.6749 -0.0590736 3.01338 0.0287688C2.35186 0.116611 1.72986 0.402788 1.22443 0.851843C0.719 1.3009 0.352363 1.8931 0.169943 2.55507C-0.0124774 3.21704 -0.00266395 3.91968 0.198168 4.57595L7.07505 27.266L33.1532 29.8754C33.6618 29.9273 34.1334 30.1724 34.4765 30.5632C34.8196 30.954 35.0096 31.4624 35.0096 31.9897C35.0096 32.517 34.8196 33.0254 34.4765 33.4162C34.1334 33.8069 33.6618 34.0521 33.1532 34.104L33.1632 34.1246Z" fill="#107F4C"/>
</svg>
