<svg width="64" height="64" viewBox="0 0 64 64" fill="none" xmlns="http://www.w3.org/2000/svg">
<path d="M0 56V20C0 17.8783 0.842924 15.8434 2.34334 14.3431C3.84375 12.8429 5.87875 12 8.00066 12H32.456L24.5887 20H8.00066V56H44.0036V39.4133L52.0043 31.5467V56C52.0043 58.1217 51.1614 60.1566 49.661 61.6569C48.1605 63.1571 46.1255 64 44.0036 64H8.00066C5.87875 64 3.84375 63.1571 2.34334 61.6569C0.842924 60.1566 0 58.1217 0 56ZM58.0048 0C56.4139 0.00140042 54.8887 0.63446 53.7644 1.76L25.3354 30.6667C24.4588 31.5565 23.7974 32.6352 23.4019 33.82L20.5217 42.4867C20.4749 42.6305 20.4689 42.7845 20.5042 42.9315C20.5395 43.0786 20.6148 43.2131 20.7217 43.32C20.8287 43.4269 20.9631 43.5022 21.1102 43.5375C21.2573 43.5728 21.4113 43.5668 21.5551 43.52L30.2225 40.64C31.3969 40.2274 32.4617 39.5526 33.3361 38.6667L62.2451 10.24C63.0833 9.40091 63.6539 8.33228 63.885 7.16909C64.1161 6.0059 63.9973 4.80032 63.5435 3.70461C63.0898 2.60891 62.3215 1.67222 61.3357 1.01286C60.3499 0.353502 59.1908 0.0010431 58.0048 0Z" fill="#107F4C"/>
</svg>
