<svg width="72" height="72" viewBox="0 0 72 72" fill="none" xmlns="http://www.w3.org/2000/svg">
<path d="M32.6264 10.7473H10.3614C8.67426 10.7473 7.05621 11.4175 5.86321 12.6105C4.67022 13.8035 4 15.4216 4 17.1087V61.6386C4 63.3257 4.67022 64.9438 5.86321 66.1368C7.05621 67.3298 8.67426 68 10.3614 68H54.8913C56.5784 68 58.1965 67.3298 59.3895 66.1368C60.5825 64.9438 61.2527 63.3257 61.2527 61.6386V39.3736M56.4816 5.97624C57.747 4.71087 59.4632 4 61.2527 4C63.0422 4 64.7584 4.71087 66.0238 5.97624C67.2891 7.2416 68 8.9578 68 10.7473C68 12.5368 67.2891 14.253 66.0238 15.5184L35.8071 45.7351L23.0842 48.9158L26.2649 36.1929L56.4816 5.97624Z" stroke="#624DE3" stroke-width="8" stroke-linecap="round" stroke-linejoin="round"/>
</svg>
