<svg width="64" height="64" viewBox="0 0 64 64" fill="none" xmlns="http://www.w3.org/2000/svg">
<path d="M44.3009 32L61.4522 14.8486C64.8493 11.4516 64.8493 5.94476 61.4522 2.54775C58.0552 -0.849251 52.5484 -0.849251 49.1514 2.54775L32 19.6991L14.8486 2.54775C11.4516 -0.849251 5.94476 -0.849251 2.54775 2.54775C-0.849251 5.94476 -0.849251 11.4516 2.54775 14.8486L19.6991 32L2.54775 49.1514C-0.849251 52.5484 -0.849251 58.0552 2.54775 61.4522C5.94476 64.8493 11.4516 64.8493 14.8486 61.4522L32 44.3009L49.1514 61.4522C52.5484 64.8493 58.0552 64.8493 61.4522 61.4522C64.8493 58.0552 64.8493 52.5484 61.4522 49.1514L44.3009 32Z" fill="#636363"/>
</svg>
