<svg width="91" height="100" viewBox="0 0 91 100" fill="none" xmlns="http://www.w3.org/2000/svg">
<path d="M85.1758 0H40.2971C37.0807 0 34.4773 2.51781 34.4773 5.59812V9.44631C37.6315 9.45524 53.8955 9.43738 57.4143 9.44631C60.302 9.44631 63.1052 10.5981 65.0954 12.6114L76.1752 23.5443C78.1832 25.5131 79.2938 28.1604 79.2938 30.9773C79.2983 34.071 79.2894 67.1507 79.2938 69.1598H85.1802C88.3833 69.1598 91 66.642 91 63.5617L90.9956 5.59766C90.9956 2.51289 88.3744 0 85.1758 0Z" fill="#107F4C"/>
<path d="M54.5929 14.4513C46.1965 14.4959 32.8069 14.42 24.4899 14.4513C21.7044 14.4513 19.4475 16.6834 19.4475 19.4156V54.5318C37.6488 42.8851 57.382 65.1344 44.095 81.9464H69.9013C72.3402 81.9464 74.3127 80.0312 74.3127 77.6786C74.2772 69.7412 74.3349 43.0492 74.3127 33.9464C72.3935 33.933 67.9821 33.9554 66.0184 33.9464H58.9015C56.5114 33.9464 54.5877 32.0626 54.5877 29.7455C54.5789 25.3572 54.5922 18.8037 54.5877 14.4463L54.5929 14.4513ZM63.5313 66.8657H56.481C53.2157 66.8032 53.2113 61.9282 56.481 61.8657H63.5313C64.9085 61.8657 66.0191 62.9818 66.0191 64.3657C66.0191 65.7495 64.9085 66.8657 63.5313 66.8657ZM63.5313 55.2806H51.4078C48.1425 55.227 48.1336 50.3343 51.4078 50.2807H63.5313C66.7966 50.3342 66.8055 55.227 63.5313 55.2806ZM63.5313 40.0979C66.7922 40.147 66.8099 45.0353 63.5313 45.0979H32.9313C29.6749 45.0264 29.6571 40.1604 32.9313 40.0979H63.5313Z" fill="#107F4C"/>
<path d="M72.6701 27.1163L61.5727 16.1521C61.0085 15.5851 60.3109 15.1342 59.5647 14.853V28.9512H73.8968C73.6303 28.2681 73.2165 27.6521 72.6701 27.1163Z" fill="#107F4C"/>
<path d="M6.64459 99.9991C8.57264 100.008 10.4385 99.1285 11.6692 97.6642L19.1016 88.883C19.3059 88.6598 20.6787 86.9947 20.843 86.8339C21.6693 85.8652 21.6249 84.3607 20.7097 83.4501L20.3454 83.084L22.1847 81.2358C23.3664 82.0885 24.7081 82.7 26.0808 83.1018C33.0423 85.2938 41.1681 80.7492 42.9309 73.6198C45.4454 65.3922 38.6216 56.0976 29.843 56.3525C20.9534 56.0846 13.9959 65.7274 16.8881 74.0712C17.2701 75.339 17.8477 76.5712 18.6474 77.7051L16.8214 79.5533C16.2261 78.8524 15.3643 78.3346 14.4491 78.4685C13.343 78.4149 11.8636 80.1872 11.0506 80.7675L2.29433 88.2496C-2.37039 92.1559 0.57952 100.088 6.63913 99.9992L6.64459 99.9991ZM22.7623 65.0977C30.248 55.1469 44.2731 66.8611 35.9117 76.0976C28.4172 83.3296 17.0178 73.7985 22.7623 65.0977Z" fill="#107F4C"/>
<path d="M35.0542 73.7136C35.9782 71.3073 32.784 69.2136 30.9581 71.1154C30.3539 71.7315 29.3188 71.736 28.7368 71.1154C28.1415 70.5172 27.3418 70.2806 26.5822 70.4146C24.6631 70.6601 23.7701 73.285 25.2228 74.6466C27.844 77.4011 33.2061 77.2448 35.0586 73.7136L35.0542 73.7136Z" fill="#107F4C"/>
</svg>
