<svg width="64" height="77" viewBox="0 0 64 77" fill="none" xmlns="http://www.w3.org/2000/svg">
<path d="M25.4 77C20.3363 77 16.11 72.8732 16.0012 67.7074L16 57.7481C16 55.9761 17.4325 54.5399 19.2 54.5399C20.9675 54.5399 22.4 55.9761 22.4 57.7481V67.5921C22.435 69.2451 23.8038 70.5823 25.465 70.5823C25.4875 70.5823 25.51 70.5823 25.5312 70.5823L51.2 70.581C54.7288 70.581 57.6 67.7024 57.6 64.1646V12.8329C57.6 9.29509 54.7288 6.41646 51.2 6.41646H25.38C24.5838 6.43275 23.8188 6.76986 23.2512 7.36263C22.685 7.95666 22.3813 8.7349 22.3987 9.55576L22.4 19.2494C22.4 21.0214 20.9675 22.4576 19.2 22.4576C17.4325 22.4576 16 21.0214 16 19.2494V9.62469C15.89 4.46019 20.0463 0.112789 25.2662 0.00125319L25.645 0H51.2C58.2575 0 64 5.75727 64 12.8329V64.1646C64 71.2402 58.2575 76.9975 51.2 76.9975H25.6C25.5325 76.9987 25.4663 77 25.4 77Z" fill="#EF4444"/>
<path d="M12.8 51.3317C11.9812 51.3317 11.1625 51.0184 10.5375 50.3917L0.9375 40.7671C-0.3125 39.5139 -0.3125 37.4836 0.9375 36.2304L10.5375 26.6057C11.7875 25.3525 13.8125 25.3525 15.0625 26.6057C16.3125 27.859 16.3125 29.8892 15.0625 31.1424L7.725 38.4987L15.0625 45.8551C16.3125 47.1083 16.3125 49.1385 15.0625 50.3917C14.4375 51.0184 13.6188 51.3317 12.8 51.3317Z" fill="#EF4444"/>
<path d="M44.8 41.707H3.2C1.4325 41.707 0 40.2708 0 38.4987C0 36.7267 1.4325 35.2905 3.2 35.2905H44.8C46.5675 35.2905 48 36.7267 48 38.4987C48 40.2708 46.5675 41.707 44.8 41.707Z" fill="#EF4444"/>
</svg>
