<svg width="240" height="240" viewBox="0 0 240 240" fill="none" xmlns="http://www.w3.org/2000/svg">
<path d="M120 0C53.8105 0 0 53.8105 0 120C0 186.189 53.8105 240 120 240C186.189 240 240 186.189 240 120C240 53.8105 186.189 0 120 0ZM120 68.7158C140.716 68.7158 157.642 85.6421 157.642 106.358C157.642 127.074 140.716 144 120 144C99.2842 144 82.3579 127.074 82.3579 106.358C82.3579 85.6421 99.2842 68.7158 120 68.7158ZM54.3158 192.758V187.2C54.3158 171.284 67.2 158.147 83.3684 158.147H156.632C172.547 158.147 185.684 171.032 185.684 187.2V192.758C168.253 208.421 145.263 218.021 120 218.021C94.7368 218.021 71.7474 208.421 54.3158 192.758Z" fill="#17BA6F"/>
</svg>
