<svg width="78" height="64" viewBox="0 0 78 64" fill="none" xmlns="http://www.w3.org/2000/svg">
<path d="M5.85 0C2.61914 0 0 2.6048 0 5.81818C0 9.03137 2.61914 11.6364 5.85 11.6364H72.15C75.3809 11.6364 78 9.03137 78 5.81818C78 2.6048 75.3809 0 72.15 0H5.85ZM5.85 26.1818C2.61914 26.1818 0 28.7866 0 32C0 35.2132 2.61914 37.8182 5.85 37.8182H72.15C75.3809 37.8182 78 35.2132 78 32C78 28.7866 75.3809 26.1818 72.15 26.1818H5.85ZM5.85 52.3636C2.61914 52.3636 0 54.9684 0 58.1818C0 61.395 2.61914 64 5.85 64H72.15C75.3809 64 78 61.395 78 58.1818C78 54.9684 75.3809 52.3636 72.15 52.3636H5.85Z" fill="#636363"/>
</svg>
