<svg width="100" height="100" viewBox="0 0 100 100" fill="none" xmlns="http://www.w3.org/2000/svg">
<path d="M39.2857 89.2857C41.2582 89.2857 42.8571 87.6867 42.8571 85.7143C42.8571 83.7418 41.2582 82.1429 39.2857 82.1429C37.3133 82.1429 35.7143 83.7418 35.7143 85.7143C35.7143 87.6867 37.3133 89.2857 39.2857 89.2857Z" fill="#107F4C"/>
<path d="M22.0285 12.3047L17.3026 19.3935L16.8108 18.9035C15.4157 17.5084 13.1557 17.5084 11.7606 18.9035C10.3655 20.2985 10.3655 22.5586 11.7606 23.9537L15.332 27.5251C16.0052 28.1982 16.9137 28.5714 17.8571 28.5714C17.974 28.5714 18.0908 28.5662 18.2094 28.554C19.2732 28.4494 20.2358 27.8721 20.8287 26.981L27.9715 16.2667C29.0649 14.6258 28.622 12.4076 26.981 11.3142C25.3348 10.2138 23.1219 10.662 22.0285 12.3047Z" fill="#107F4C"/>
<path d="M63.9788 19.6429L66.8108 16.8108C68.2059 15.4157 68.2059 13.1557 66.8108 11.7606C65.4157 10.3655 63.1557 10.3655 61.7606 11.7606L58.9286 14.5926L56.0965 11.7606C54.7014 10.3655 52.4414 10.3655 51.0463 11.7606C49.6512 13.1557 49.6512 15.4157 51.0463 16.8108L53.8783 19.6429L51.0463 22.4749C49.6512 23.87 49.6512 26.13 51.0463 27.5251C51.7439 28.2227 52.6576 28.5714 53.5714 28.5714C54.4852 28.5714 55.399 28.2227 56.0965 27.5251L58.9286 24.6931L61.7606 27.5251C62.4581 28.2227 63.3719 28.5714 64.2857 28.5714C65.1995 28.5714 66.1133 28.2227 66.8108 27.5251C68.2059 26.13 68.2059 23.87 66.8108 22.4749L63.9788 19.6429Z" fill="#107F4C"/>
<path d="M57.1429 69.6429C57.1429 57.4249 66.5878 47.4337 78.5714 46.5188V3.57143C78.5714 1.59912 76.9723 0 75 0H3.57143C1.59912 0 0 1.59912 0 3.57143V96.4286C0 98.4009 1.59912 100 3.57143 100H75C76.9723 100 78.5714 98.4009 78.5714 96.4286V92.7669C66.5878 91.852 57.1429 81.8608 57.1429 69.6429ZM46.4286 10.7143C46.4286 8.74176 48.0275 7.14286 50 7.14286H67.8571C69.8297 7.14286 71.4286 8.74176 71.4286 10.7143V28.5714C71.4286 30.544 69.8297 32.1429 67.8571 32.1429H50C48.0275 32.1429 46.4286 30.544 46.4286 28.5714V10.7143ZM7.14286 28.5714V10.7143C7.14286 8.74176 8.74176 7.14286 10.7143 7.14286H28.5714C30.544 7.14286 32.1429 8.74176 32.1429 10.7143V28.5714C32.1429 30.544 30.544 32.1429 28.5714 32.1429H10.7143C8.74176 32.1429 7.14286 30.544 7.14286 28.5714ZM53.5714 89.2857C53.5714 91.2582 51.9725 92.8571 50 92.8571H28.5714C26.5989 92.8571 25 91.2582 25 89.2857V50C25 48.0275 26.5989 46.4286 28.5714 46.4286H50C51.9725 46.4286 53.5714 48.0275 53.5714 50V89.2857Z" fill="#107F4C"/>
<path d="M39.2857 78.5714C37.3134 78.5714 35.7143 76.9723 35.7143 75V73.0713C35.7143 69.1389 37.7284 65.611 40.9703 63.8637C42.1352 63.2377 42.8571 62.0309 42.8571 60.7143C42.8571 58.7455 41.2545 57.1429 39.2857 57.1429C37.3169 57.1429 35.7143 58.7455 35.7143 60.7143C35.7143 62.6866 34.1152 64.2857 32.1429 64.2857C30.1705 64.2857 28.5714 62.6866 28.5714 60.7143C28.5714 54.8061 33.3775 50 39.2857 50C45.1939 50 50 54.8061 50 60.7143C50 64.6641 47.8376 68.2809 44.3569 70.1538C43.4466 70.6438 42.8571 71.7895 42.8571 73.0713V75C42.8571 76.9723 41.258 78.5714 39.2857 78.5714Z" fill="#107F4C"/>
<path d="M98.2896 71.5864C97.2982 71.5864 96.4959 70.784 96.4959 69.7924C96.4959 68.8008 97.2982 67.9984 98.2896 67.9984H100C99.2092 58.4791 91.6449 50.8615 82.1469 50V51.7031C82.1469 52.6947 81.3447 53.4971 80.3533 53.4971C79.3619 53.4971 78.5597 52.6947 78.5597 51.7031V50C69.111 50.8571 61.5712 58.3983 60.7143 67.8489H62.417C63.4084 67.8489 64.2107 68.6513 64.2107 69.6429C64.2107 70.6344 63.4084 71.4368 62.417 71.4368H60.7143C61.5712 80.8874 69.111 88.4286 78.5597 89.2857V87.5826C78.5597 86.591 79.3619 85.7886 80.3533 85.7886C81.3447 85.7886 82.1469 86.591 82.1469 87.5826V89.2857C91.5462 88.4332 99.0631 80.9671 99.9847 71.5864H98.2896ZM88.796 63.7353L81.6215 70.9113C81.2852 71.2476 80.8297 71.4368 80.3533 71.4368H73.1788C72.1874 71.4368 71.3852 70.6344 71.3852 69.6429C71.3852 68.6513 72.1874 67.8489 73.1788 67.8489H79.6106L86.2597 61.1986C86.9603 60.4978 88.0953 60.4978 88.796 61.1986C89.4966 61.8993 89.4966 63.0346 88.796 63.7353Z" fill="#107F4C"/>
</svg>
