<svg width="66" height="72" viewBox="0 0 66 72" fill="none" xmlns="http://www.w3.org/2000/svg">
<path d="M4 16.8H10.4444M10.4444 16.8H62M10.4444 16.8V61.6C10.4444 63.2974 11.1234 64.9253 12.332 66.1255C13.5405 67.3257 15.1797 68 16.8889 68H49.1111C50.8203 68 52.4595 67.3257 53.668 66.1255C54.8766 64.9253 55.5556 63.2974 55.5556 61.6V16.8H10.4444ZM20.1111 16.8V10.4C20.1111 8.70261 20.7901 7.07475 21.9986 5.87452C23.2072 4.67428 24.8464 4 26.5556 4H39.4444C41.1536 4 42.7928 4.67428 44.0014 5.87452C45.2099 7.07475 45.8889 8.70261 45.8889 10.4V16.8M26.5556 32.8V52M39.4444 32.8V52" stroke="#EF4444" stroke-width="8" stroke-linecap="round" stroke-linejoin="round"/>
</svg>
