<svg width="64" height="64" viewBox="0 0 64 64" fill="none" xmlns="http://www.w3.org/2000/svg">
<path d="M36.1739 4.17391C36.1739 3.06692 35.7342 2.00527 34.9514 1.22251C34.1686 0.43975 33.107 0 32 0C30.893 0 29.8314 0.43975 29.0486 1.22251C28.2658 2.00527 27.8261 3.06692 27.8261 4.17391V27.8261H4.17391C3.06692 27.8261 2.00527 28.2658 1.22251 29.0486C0.43975 29.8314 0 30.893 0 32C0 33.107 0.43975 34.1686 1.22251 34.9514C2.00527 35.7342 3.06692 36.1739 4.17391 36.1739H27.8261V59.8261C27.8261 60.9331 28.2658 61.9947 29.0486 62.7775C29.8314 63.5602 30.893 64 32 64C33.107 64 34.1686 63.5602 34.9514 62.7775C35.7342 61.9947 36.1739 60.9331 36.1739 59.8261V36.1739H59.8261C60.9331 36.1739 61.9947 35.7342 62.7775 34.9514C63.5602 34.1686 64 33.107 64 32C64 30.893 63.5602 29.8314 62.7775 29.0486C61.9947 28.2658 60.9331 27.8261 59.8261 27.8261H36.1739V4.17391Z" fill="white"/>
</svg>
