<svg width="24" height="20" viewBox="0 0 24 20" fill="none" xmlns="http://www.w3.org/2000/svg">
<path d="M23.9972 2.59997C23.9685 1.99799 23.6852 1.45421 23.2602 1.05365C22.8353 0.653094 22.2687 0.451669 21.6734 0.509873C21.078 0.538964 20.5402 0.825416 20.1717 1.25508L8.84009 14.1449L3.65786 9.38855C3.23292 8.98799 2.66634 8.78656 2.07098 8.81567C1.47562 8.84476 0.937817 9.10211 0.569313 9.53177C0.17316 9.96143 -0.0260493 10.5343 0.00273302 11.1363C0.031504 11.7383 0.286023 12.2821 0.710959 12.6547L7.53882 18.9271C7.93497 19.2997 8.4739 19.5 9.0117 19.5H9.15335C9.71993 19.4709 10.2577 19.2136 10.6827 18.7548L23.4871 4.17556C23.8279 3.7459 24.026 3.17285 23.9972 2.59997Z" fill="white"/>
</svg>
