<svg width="80" height="100" viewBox="0 0 80 100" fill="none" xmlns="http://www.w3.org/2000/svg">
<path fill-rule="evenodd" clip-rule="evenodd" d="M74.6603 68.9287C72.6135 67.4072 70.2726 66.3278 67.7845 65.7687V8.94177H70.1904H70.1861C72.6223 8.97211 74.5869 10.94 74.6171 13.3804L74.6603 68.9287ZM80 83.7015C80 88.0231 78.2864 92.1713 75.2358 95.2276C72.1851 98.2835 68.044 100 63.7296 100C59.4111 100 55.2743 98.2835 52.2189 95.2276C49.1683 92.1717 47.4547 88.0234 47.4547 83.7015C47.4547 79.3756 49.1683 75.2317 52.2189 72.1754C55.2739 69.1152 59.4107 67.3987 63.7296 67.3987C68.0437 67.3987 72.1848 69.1152 75.2358 72.1754C78.2864 75.2313 80 79.3753 80 83.7015ZM72.9122 77.4076C72.2458 76.6144 71.0688 76.5103 70.2769 77.1735L59.6408 86.0508L56.019 81.2914C55.3699 80.5415 54.2491 80.4245 53.4616 81.027C52.6784 81.6295 52.4967 82.7435 53.0505 83.5671L57.8579 89.9477C58.1652 90.3508 58.6239 90.6109 59.1258 90.6672C59.6277 90.7279 60.134 90.5805 60.5277 90.2597L72.713 80.0734C73.0895 79.744 73.3275 79.2802 73.3621 78.7816C73.401 78.2831 73.2367 77.7891 72.9122 77.4076ZM8.9617 88.2962V90.7062V90.7019C8.99632 93.1596 10.9954 95.1362 13.449 95.1406H49.4509C47.8238 93.1077 46.6469 90.7583 45.9935 88.2398L8.9617 88.2962ZM45.5175 86.2069H4.431C1.98188 86.2069 0 84.2216 0 81.7682V16.3892H10.8351C12.302 16.3892 13.7127 15.804 14.7513 14.7637C15.7898 13.7235 16.3739 12.3104 16.3739 10.8408V0H61.2156C63.6691 0.0346769 65.638 2.0329 65.6466 4.49069V65.4223C64.9889 65.3486 64.3312 65.3095 63.6735 65.3139C58.8141 65.3269 54.1582 67.2731 50.7306 70.7192C47.2991 74.1652 45.3736 78.8336 45.3736 83.7011C45.3606 84.5377 45.4082 85.3786 45.5164 86.2065L45.5175 86.2069ZM9.61528 41.2567C9.61528 41.8332 10.0826 42.297 10.6581 42.297H54.9682C55.5437 42.297 56.0067 41.8332 56.0067 41.2567C56.0067 40.6802 55.5437 40.212 54.9682 40.212H51.8656V17.5982C51.8612 17.0564 51.6449 16.5406 51.2684 16.1548C50.879 15.7907 50.3684 15.5913 49.8361 15.6H44.0463C42.917 15.6 42.0039 16.5146 42.0039 17.6415V40.212H37.7633V24.9886C37.7676 24.4468 37.5512 23.9266 37.1661 23.5451C36.7854 23.1637 36.2704 22.9513 35.7381 22.947H29.9311C29.3902 22.947 28.8753 23.1637 28.4901 23.5451C28.1137 23.9266 27.9016 24.4467 27.906 24.9886V40.212H23.6393V32.3664C23.6393 31.8289 23.423 31.3131 23.0422 30.9359C22.6614 30.5545 22.1508 30.3378 21.6142 30.3378H15.8201C15.2835 30.3378 14.7686 30.5545 14.3878 30.9359C14.0027 31.313 13.7906 31.8289 13.7906 32.3664V40.212H10.6578C10.0823 40.212 9.61528 40.6802 9.61528 41.2567ZM9.61528 48.7903C9.61528 49.3668 10.0826 49.8349 10.6581 49.8349H54.9682C55.2581 49.8653 55.5523 49.7699 55.773 49.5705C55.9894 49.3711 56.1148 49.0894 56.1148 48.7946C56.1148 48.4999 55.9894 48.2181 55.773 48.0231C55.5523 47.8237 55.2581 47.7283 54.9682 47.7587H10.6581C10.0869 47.7587 9.61961 48.2181 9.61528 48.7903ZM9.61528 55.7907C9.61528 56.3672 10.0826 56.8354 10.6581 56.8354H54.9682C55.5437 56.8354 56.0067 56.3672 56.0067 55.7907C56.0067 55.2142 55.5437 54.7504 54.9682 54.7504H10.6581C10.3812 54.7504 10.1172 54.8588 9.92251 55.0538C9.72346 55.2489 9.61528 55.5133 9.61528 55.7907ZM9.61528 62.7955C9.6196 63.3676 10.0869 63.8271 10.6581 63.8271H54.9682C55.2581 63.8574 55.5523 63.7621 55.773 63.5627C55.9894 63.3633 56.1148 63.0859 56.1148 62.7868C56.1148 62.492 55.9894 62.2103 55.773 62.0152C55.5523 61.8158 55.2581 61.7205 54.9682 61.7508H10.6581C10.0826 61.7508 9.61528 62.219 9.61528 62.7955ZM34.3281 69.7829C34.2978 69.2237 33.8478 68.7729 33.2896 68.7426H10.6582C10.0827 68.7426 9.61538 69.2107 9.61538 69.7829C9.61538 70.3594 10.0827 70.8275 10.6582 70.8275H33.3328C33.878 70.7755 34.2978 70.3334 34.3281 69.7829ZM21.5668 32.4228H15.8723V40.1904H21.5668V32.4228ZM35.6685 25.0322H30.0085V40.2124H35.703L35.6685 25.0322ZM49.779 17.6416H44.0888V40.2122H49.7833L49.779 17.6416ZM13.2232 13.2896L13.2275 13.294C13.8766 12.6481 14.2444 11.7682 14.2444 10.8493V1.04009L0.951421 14.356H10.7437C11.6784 14.3517 12.5697 13.9703 13.2146 13.2941L13.2232 13.2896Z" fill="#107F4C"/>
</svg>
